<?xml version="1.0" encoding="utf-8"?>
<svg version="1.1" viewBox="0.73 0 959.27 505.187" fill="none" stroke="none" stroke-linecap="square" stroke-miterlimit="10" xmlns="http://www.w3.org/2000/svg">
  <clipPath id="p.0">
    <path d="m0 0l960.0 0l0 720.0l-960.0 0l0 -720.0z" clip-rule="nonzero"/>
  </clipPath>
  <g clip-path="url(#p.0)" style="" transform="matrix(1.032502, 0, 0, 0.847355, -24.917915, -49.277687)">
    <path fill="#000000" fill-opacity="0.0" d="m0 0l960.0 0l0 720.0l-960.0 0z" fill-rule="evenodd"/>
    <path fill="#d0ee71" d="m592.1367 199.21074l184.19037 -69.15729l-84.439026 163.11879l167.81812 -16.120117l-105.941956 69.71472l199.96228 92.44119l-213.48767 1.1784668l25.327698 76.73752l-86.02911 -2.6829224l53.6709 139.05334l-147.01569 -109.5744l-27.143616 92.79706l-88.13721 -88.82013l-59.260925 74.65753l-48.227997 -72.437256l-75.308075 47.944763l-24.872925 -66.08966l-145.34839 56.261475l38.842567 -99.418304l-130.48805 -72.1676l110.444466 -36.312378l-96.461975 -129.22461l168.33983 29.923157l-63.93454 -143.5969l167.87663 58.593735l20.283356 -136.50975l120.774536 149.14978l102.96649 -110.42355z" fill-rule="evenodd"/>
    <path stroke="#000000" stroke-width="4.0" stroke-linejoin="round" stroke-linecap="butt" d="m592.1367 199.21074l184.19037 -69.15729l-84.439026 163.11879l167.81812 -16.120117l-105.941956 69.71472l199.96228 92.44119l-213.48767 1.1784668l25.327698 76.73752l-86.02911 -2.6829224l53.6709 139.05334l-147.01569 -109.5744l-27.143616 92.79706l-88.13721 -88.82013l-59.260925 74.65753l-48.227997 -72.437256l-75.308075 47.944763l-24.872925 -66.08966l-145.34839 56.261475l38.842567 -99.418304l-130.48805 -72.1676l110.444466 -36.312378l-96.461975 -129.22461l168.33983 29.923157l-63.93454 -143.5969l167.87663 58.593735l20.283356 -136.50975l120.774536 149.14978l102.96649 -110.42355z" fill-rule="evenodd"/>
  </g>
</svg>