<svg id="Layer_1" data-name="Layer 1" xmlns="http://www.w3.org/2000/svg" viewBox="0 0 200 200"><defs><style>.cls-1{fill:#ff0000;}.cls-2{fill:#000000;}.cls-3{fill:#000000;}</style></defs><path class="cls-1" d="M598.61,597h-6c-1.55-6.38-3.75-12.68-4.49-19.16-1.18-10.43-1.4-21-2.09-32.58-5,6-11.29,8.18-17.19,11.34-11.26,6-22.13,3.39-33.32,2.13a5.63,5.63,0,0,1-2.46-1.59c-3-2.59-6-5.23-9.41-8.16-2,7.17-3.31,14.2-5.89,20.73-1.39,3.52-4.65,6.45-7.58,9.08-.88.78-3.48-.37-5.29-.63,1-1.33,1.71-3.54,2.92-3.83,5.27-1.26,5.07-5.16,5.29-9.2.4-7.44.12-15.09,1.83-22.24a96.06,96.06,0,0,0,2.87-24c0-2.34,1.06-4.86,2.19-7,2.28-4.32,5.55-8.2,7.29-12.7,1.87-4.78,4.05-9.48,1.93-15.41-3-8.4-4-17.48-6.64-26-3.82-12.45-7.84-24.88-12.66-37-3.27-8.21-8.06-15.82-12.16-23.69h3c2.42,3.11,5.46,5.93,7.12,9.41,4.61,9.68,9.31,19.4,12.73,29.53,5,14.88,9,30.14,13.38,45.23.44,1.5.84,3,1.17,4.17,3.84-14.45,7.59-28.93,11.54-43.36,2.79-10.19,5.45-20.43,8.89-30.4,2.18-6.35,7-8.73,12.26-6.73a16.62,16.62,0,0,1,10.49,11.16c1.9,6.64,3.22,13.48,5.55,20,1.6,4.41,4.51,8.36,7.09,13,12.54-19.65,24.51-37.85,41.59-51.94h5c-4.9,4.8-10.26,9.24-14.61,14.51a286.44,286.44,0,0,0-17.15,23.36c-4.36,6.54-8,13.57-12.35,21.12,5.65-1.39,10.24-3.29,14.88-3.47,6.76-.26,7.8-4.84,9.1-9.66.13-.48,0-1,.16-1.48,3.14-9.73,6.35-19.44,9.43-29.18,2-6.2,12-9.81,16.6-2.45a53.72,53.72,0,0,1,5.88,13.31c1.17,4,1.08,8.36,1.61,13.1l5.66-6,1.35.75c-1.14,2.53-2.45,5-3.36,7.61s-1.53,5.63-2.27,8.46l1.47.62,18.94-12.73c.31,2,.05,3.23-.65,4.06-4.42,5.13-8.68,10.45-13.52,15.17-3.23,3.15-2.75,5.91-.76,9.07.88,1.4,2.09,2.58,3.08,3.91,3.26,4.4,3,5.09-3.15,7,2.78,5.06,5.5,10,8.48,15.43l-5.91,1c1.84,4.81,3.61,9.22,5.2,13.69.47,1.3,1,3.65.5,4-3.22,2.31-1.45,4.26-.22,6.64,1.64,3.16,4.69,7.07,3.91,9.71-2.06,7-.48,13.37,1.09,19.75,1.43,5.83,2.64,5.48,8,2.51s11-4.67,16.54-6.94v11c-7,3.67-13.82,7.51-20.88,10.94-5.46,2.65-7.82,1.42-9.14-4.68-1.49-6.93-2.39-14-3.82-20.94q-4.47-21.85-9.27-43.63c-1.19-5.35-2.84-10.59-4.48-16.64q-8.31,15.94-15.24,29.2c3.53,1.18,6.18,1.6,8.32,2.87,5.79,3.43,4.81,9.31,4.67,14.76-.27,10.43-1,20.88-.77,31.31.1,4.93-.08,10.72,7,12.55,2.09.55,3.61,3.29,5.39,5-2.8.3-5.6.64-8.41.86-.37,0-.76-.61-1.19-.86-7.43-4.35-9.27-11.61-9.81-19.39-.7-10.32-1.16-20.65-1.76-31.5-4.91,5.34-9.24,10.3-13.84,15-5.84,6-12.36,10-21.53,5-1,6.1-2,11.64-3,17.17-.94,5.34-2.35,10.65-2.73,16a70.62,70.62,0,0,0,.82,14.65C596.19,591.53,597.64,594.22,598.61,597Zm-15.5-136.61c-2.93-6.65-5.67-12.84-8.41-19l-1.49.47v23.42Z" transform="translate(-495.47 -396.98)"/><path class="cls-2" d="M497.76,397c4.1,7.87,8.89,15.48,12.16,23.69,4.82,12.09,8.84,24.52,12.66,37,2.62,8.56,3.64,17.64,6.64,26,2.12,5.93-.06,10.63-1.93,15.41-1.74,4.5-5,8.38-7.29,12.7-1.13,2.15-2.22,4.67-2.19,7a96.06,96.06,0,0,1-2.87,24c-1.71,7.15-1.43,14.8-1.83,22.24-.22,4,0,7.94-5.29,9.2-1.21.29-2,2.5-2.92,3.83,1.81.26,4.41,1.41,5.29.63,2.93-2.63,6.19-5.56,7.58-9.08,2.58-6.53,3.93-13.56,5.89-20.73,3.37,2.93,6.37,5.57,9.41,8.16a5.63,5.63,0,0,0,2.46,1.59c11.19,1.26,22.06,3.91,33.32-2.13,5.9-3.16,12.23-5.35,17.19-11.34.69,11.6.91,22.15,2.09,32.58.74,6.48,2.94,12.78,4.49,19.16H495.76V501.83q0-50.65.07-101.3C495.84,399.31,494.23,396.56,497.76,397Z" transform="translate(-495.47 -396.98)"/><path class="cls-3" d="M695.47,540c-5.54,2.27-11.34,4.06-16.54,6.94s-6.56,3.32-8-2.51c-1.57-6.38-3.15-12.79-1.09-19.75.78-2.64-2.27-6.55-3.91-9.71-1.23-2.38-3-4.33.22-6.64.54-.39,0-2.74-.5-4-1.59-4.47-3.36-8.88-5.2-13.69l5.91-1c-3-5.41-5.7-10.37-8.48-15.43,6.17-1.94,6.41-2.63,3.15-7-1-1.33-2.2-2.51-3.08-3.91-2-3.16-2.47-5.92.76-9.07,4.84-4.72,9.1-10,13.52-15.17.7-.83,1-2,.65-4.06L654,447.67l-1.47-.62c.74-2.83,1.32-5.71,2.27-8.46s2.22-5.08,3.36-7.61l-1.35-.75-5.66,6c-.53-4.74-.44-9.11-1.61-13.1a53.72,53.72,0,0,0-5.88-13.31C639,402.43,629,406,627,412.24c-3.08,9.74-6.29,19.45-9.43,29.18-.14.46,0,1-.16,1.48-1.3,4.82-2.34,9.4-9.1,9.66-4.64.18-9.23,2.08-14.88,3.47,4.37-7.55,8-14.58,12.35-21.12a286.44,286.44,0,0,1,17.15-23.36c4.35-5.27,9.71-9.71,14.61-14.51h57.92Z" transform="translate(-495.47 -396.98)"/><path class="cls-3" d="M598.61,597c-1-2.76-2.42-5.45-2.81-8.29A70.62,70.62,0,0,1,595,574c.38-5.38,1.79-10.69,2.73-16,1-5.53,1.91-11.07,3-17.17,9.17,5.06,15.69,1,21.53-5,4.6-4.7,8.93-9.66,13.84-15,.6,10.85,1.06,21.18,1.76,31.5.54,7.78,2.38,15,9.81,19.39.43.25.82.88,1.19.86,2.81-.22,5.61-.56,8.41-.86-1.78-1.74-3.3-4.48-5.39-5-7-1.83-6.86-7.62-7-12.55-.21-10.43.5-20.88.77-31.31.14-5.45,1.12-11.33-4.67-14.76-2.14-1.27-4.79-1.69-8.32-2.87Q639.59,492,647.88,476c1.64,6,3.29,11.29,4.48,16.64q4.82,21.76,9.27,43.63c1.43,7,2.33,14,3.82,20.94,1.32,6.1,3.68,7.33,9.14,4.68,7.06-3.43,13.93-7.27,20.88-10.94v46Z" transform="translate(-495.47 -396.98)"/><path class="cls-2" d="M632.56,397c-17.08,14.09-29,32.29-41.59,51.94-2.58-4.61-5.49-8.56-7.09-13-2.33-6.48-3.65-13.32-5.55-20a16.62,16.62,0,0,0-10.49-11.16c-5.21-2-10.08.38-12.26,6.73-3.44,10-6.1,20.21-8.89,30.4-4,14.43-7.7,28.91-11.54,43.36-.33-1.16-.73-2.67-1.17-4.17-4.4-15.09-8.35-30.35-13.38-45.23-3.42-10.13-8.12-19.85-12.73-29.53-1.66-3.48-4.7-6.3-7.12-9.41Z" transform="translate(-495.47 -396.98)"/><path d="M583.11,460.37l-9.9,4.85V441.8l1.49-.47C577.44,447.53,580.18,453.72,583.11,460.37Z" transform="translate(-495.47 -396.98)"/></svg>